# Blender 4.3.2
# www.blender.org
mtllib färdig ö nr 1.mtl
o Vert
v 0.933065 -0.019400 1.766155
v -0.031393 -0.028967 2.150850
v -1.192490 -0.025562 2.070772
v -1.969019 -0.025332 1.534709
v -2.447689 -0.018160 0.873278
v -2.659498 -0.021525 0.083269
v -2.518328 -0.021172 -0.825100
v -2.648808 -0.017584 -1.445704
v -1.980978 -0.011091 -1.853108
v -0.827532 -0.011158 -1.771591
v -0.039357 -0.026347 -2.200966
v 1.462070 -0.016683 -2.537564
v 2.507133 -0.011518 -2.043828
v 2.884867 -0.023086 -0.904501
v 2.597047 -0.023274 0.040849
v 2.352838 -0.022292 1.029495
v 1.593972 -0.013940 1.351284
v 1.094003 -0.026575 1.373145
v 0.677920 -0.612692 1.287518
v -0.026544 -0.679906 1.663121
v -0.951657 -0.696668 1.583418
v -1.531475 -0.670688 1.126606
v -1.907414 -0.593606 0.629517
v -2.081115 -0.589961 0.039961
v -1.967487 -0.604554 -0.644396
v -2.056543 -0.612467 -1.106337
v -1.541428 -0.558779 -1.370677
v -0.647633 -0.593944 -1.332364
v -0.037893 -0.628040 -1.677998
v 1.133233 -0.591814 -1.943691
v 1.939710 -0.562656 -1.569274
v 2.160389 -0.553327 -0.703720
v 2.036592 -0.598613 0.015973
v 1.830899 -0.659192 0.758790
v 1.222992 -0.570313 0.942130
v 0.828720 -0.617926 0.995404
v 0.254160 -1.850545 0.568342
v 0.522183 -1.288584 0.926613
v -0.030907 -1.282821 1.158116
v -0.711942 -1.280666 1.093389
v -1.190950 -1.348301 0.820391
v -1.488540 -1.299670 0.453394
v -1.596726 -1.265817 0.006113
v -1.485275 -1.247445 -0.496267
v -1.570961 -1.283361 -0.838231
v -1.184211 -1.275221 -1.070211
v -0.505569 -1.280127 -1.027034
v -0.034755 -1.272888 -1.241810
v 0.847566 -1.211598 -1.404699
v 1.507063 -1.315563 -1.203379
v 1.684937 -1.304999 -0.540306
v 1.569258 -1.299092 -0.005882
v 1.356307 -1.278644 0.510392
v 0.906769 -1.220989 0.634911
v 0.623207 -1.280560 0.708713
v 0.180404 -2.392577 0.554738
v -0.057409 -1.828946 0.669935
v -0.442869 -1.896428 0.745937
v -0.711884 -1.919848 0.534224
v -0.831351 -1.844668 0.262035
v -0.909441 -1.844886 -0.026468
v -0.816232 -1.799167 -0.360443
v -0.859767 -1.804699 -0.577481
v -0.683137 -1.855606 -0.743868
v -0.308274 -1.873689 -0.736470
v -0.031988 -1.858464 -0.855520
v 0.462179 -1.857139 -1.017242
v 0.835170 -1.882312 -0.843385
v 0.918666 -1.858660 -0.393532
v 0.886615 -1.898667 -0.030337
v 0.770529 -1.894938 0.331677
v 0.504105 -1.864984 0.443983
v 0.354979 -1.886096 0.482301
v -0.033438 -2.803617 -0.029102
v -0.038983 -2.355488 0.662968
v -0.251548 -2.368774 0.646432
v -0.389268 -2.362387 0.440244
v -0.467114 -2.339792 0.233546
v -0.495609 -2.325631 -0.031528
v -0.506975 -2.361166 -0.341456
v -0.513619 -2.352750 -0.544095
v -0.389447 -2.357444 -0.681171
v -0.188319 -2.362686 -0.669632
v -0.030868 -2.344146 -0.777917
v 0.235035 -2.336049 -0.902150
v 0.436320 -2.367177 -0.770223
v 0.437755 -2.303944 -0.364877
v 0.469917 -2.384969 -0.040359
v 0.399930 -2.377240 0.285869
v 0.254528 -2.373168 0.420088
v 0.146563 -2.333237 0.381115
v -0.034212 -2.794549 -0.042985
v -0.035710 -2.795806 -0.051367
v -0.055365 -2.782052 -0.081889
v -0.102150 -2.838710 -0.056389
v -0.085038 -2.803560 -0.093490
v -0.069632 -2.750360 -0.147659
v -0.079030 -2.771440 -0.125306
v -0.016715 -2.831888 -0.140981
v -0.019462 -2.804456 -0.087421
v -0.041576 -2.818377 -0.135697
v -0.036274 -2.835517 -0.170741
v -0.038364 -2.806939 -0.145311
v -0.055005 -2.786628 -0.092573
v -0.027440 -2.787239 -0.086214
v -0.056628 -2.786934 -0.074179
v -0.016008 -2.804012 -0.047066
v -0.013014 -2.764122 -0.030080
v -0.047372 -2.869953 -0.092002
v 0.979848 -0.170077 2.111420
v -0.080000 -0.235162 2.491713
v -1.377100 -0.091774 2.504396
v -2.205603 -0.194616 1.825410
v -2.823736 -0.018246 1.109563
v -2.917951 -0.270054 0.157373
v -2.808640 -0.153260 -0.886873
v -2.885341 -0.249204 -1.578339
v -2.204016 -0.080000 -2.128638
v -0.901701 -0.104687 -1.957242
v 0.017415 -0.189572 -2.364100
v 1.676430 -0.156603 -2.743288
v 2.404913 -0.103254 -2.054090
v 3.213198 -0.128922 -0.901578
v 2.888424 -0.098650 0.182783
v 2.656261 0.017315 1.355766
v 1.760812 -0.110689 1.643175
v 1.237144 0.008735 1.769104
v 0.829469 0.333928 1.856792
v -0.070209 0.060271 2.188337
v -1.150156 0.365388 2.164204
v -1.787663 0.063821 1.517360
v -2.340856 0.267809 0.934700
v -2.474292 -0.011203 0.125337
v -2.389803 0.249680 -0.774501
v -2.461551 0.198087 -1.404953
v -1.840147 0.254327 -1.853739
v -0.768732 0.392968 -1.807684
v 0.006433 0.173792 -2.094487
v 1.408006 0.131546 -2.440914
v 2.379671 0.129918 -1.962101
v 2.631310 0.083386 -0.800146
v 2.473292 0.245616 0.160054
v 2.171296 0.310701 1.122508
v 1.464147 0.175915 1.443943
v 0.963435 0.013732 1.378726
v 0.041836 0.168717 -0.148888
vn -0.4310 -0.6150 0.6604
vn -0.4139 -0.4771 -0.7753
vn 0.2342 -0.4763 0.8475
vn -0.0623 -0.6484 0.7587
vn 0.0380 -0.3848 -0.9222
vn 0.1813 -0.4867 0.8545
vn 0.3847 -0.5501 0.7412
vn -0.3777 -0.5382 -0.7534
vn 0.7674 -0.5960 0.2362
vn -0.8179 -0.5369 0.2070
vn 0.8364 -0.5291 0.1431
vn -0.7909 -0.5928 -0.1519
vn 0.8052 -0.5573 -0.2027
vn -0.8062 -0.5572 0.1990
vn 0.2584 -0.6223 -0.7389
vn 0.8169 -0.4145 0.4011
vn -0.6979 -0.5450 0.4647
vn -0.1390 -0.5851 -0.7990
vn -0.6029 -0.6935 0.3943
vn 0.7400 -0.5761 0.3472
vn 0.2830 -0.7690 -0.5732
vn -0.6779 -0.7104 0.1893
vn 0.5773 -0.7979 -0.1732
vn -0.7037 -0.7025 -0.1063
vn 0.6567 -0.7406 0.1421
vn -0.7422 -0.6525 0.1531
vn 0.7160 -0.6789 0.1627
vn -0.3123 -0.7242 -0.6148
vn 0.3494 -0.6176 0.7046
vn 0.2366 -0.6086 0.7574
vn 0.0352 -0.6198 -0.7839
vn -0.0573 -0.5995 0.7983
vn 0.1070 -0.6019 0.7914
vn -0.3991 -0.6142 -0.6808
vn -0.4574 -0.6491 0.6078
vn -0.1550 -0.6570 -0.7378
vn -0.4234 -0.7425 -0.5191
vn 0.6457 -0.7173 0.2617
vn -0.6367 -0.7441 0.2023
vn 0.6249 -0.7773 0.0733
vn -0.6168 -0.7589 -0.2091
vn 0.5856 -0.8027 -0.1128
vn -0.6244 -0.7714 0.1228
vn 0.1937 -0.6317 -0.7506
vn 0.6690 -0.5549 0.4945
vn -0.6189 -0.7411 0.2603
vn -0.1802 -0.4827 -0.8571
vn -0.3774 -0.6098 0.6970
vn -0.3378 -0.5110 -0.7904
vn 0.3014 -0.4437 0.8440
vn 0.0440 -0.5772 0.8154
vn 0.0330 -0.4494 -0.8927
vn 0.2336 -0.4378 0.8682
vn 0.2621 -0.6288 0.7320
vn 0.0279 -0.1181 -0.9926
vn 0.4607 -0.3460 0.8174
vn 0.3638 -0.0368 0.9308
vn -0.6708 -0.4619 -0.5803
vn 0.7520 -0.6236 0.2137
vn -0.8589 -0.5024 0.0992
vn 0.7136 -0.6900 -0.1215
vn -0.8158 -0.5672 -0.1127
vn 0.7264 -0.6873 -0.0023
vn -0.7727 -0.6207 0.1331
vn 0.3951 -0.4166 -0.8188
vn 0.9326 -0.2908 0.2139
vn -0.7780 -0.5959 0.1989
vn -0.3491 -0.1042 -0.9313
vn -0.6191 -0.4793 0.6221
vn -0.4449 -0.1851 -0.8763
vn -0.0116 -0.1243 0.9922
vn 0.1096 -0.0826 0.9905
vn -0.5177 -0.7158 -0.4686
vn -0.5112 -0.4750 0.7163
vn -0.0032 -0.8513 0.5247
vn 0.2993 -0.6633 -0.6859
vn 0.5564 -0.7754 0.2988
vn 0.0570 -0.8378 0.5430
vn -0.5244 -0.7967 -0.3005
vn 0.5878 -0.7861 0.1910
vn -0.7166 -0.6884 0.1121
vn 0.5993 -0.7453 -0.2921
vn -0.7112 -0.7018 -0.0419
vn 0.7492 -0.6468 0.1428
vn -0.7933 -0.6050 -0.0688
vn 0.3174 -0.8523 -0.4156
vn 0.9608 -0.2030 -0.1888
vn -0.4619 -0.7582 0.4602
vn -0.3686 -0.7210 -0.5868
vn -0.5468 -0.7828 0.2969
vn -0.9840 0.0636 0.1664
vn -0.8596 -0.1349 0.4928
vn 0.5241 -0.0502 0.8502
vn -0.6469 -0.3818 -0.6601
vn -0.6926 -0.4063 -0.5960
vn 0.6212 0.4227 0.6598
vn -0.5839 -0.4221 -0.6935
vn 0.8850 -0.3944 0.2474
vn -0.8843 0.3557 0.3025
vn -0.9895 -0.0110 -0.1443
vn 0.9916 -0.0373 0.1234
vn 0.9592 0.0897 0.2681
vn 0.2251 0.0139 -0.9742
vn 0.3752 -0.1544 0.9140
vn 0.6055 0.2310 -0.7616
vn -0.5126 -0.3035 0.8032
vn 0.8578 -0.4369 0.2707
vn -0.9884 0.0959 0.1178
vn 0.1141 0.6247 0.7725
vn 0.0624 0.4237 -0.9036
vn 0.1454 0.7099 0.6892
vn 0.1860 0.5842 0.7900
vn -0.4809 0.7475 -0.4583
vn 0.5631 0.8233 0.0710
vn -0.7105 0.7037 0.0012
vn 0.4892 0.8715 0.0335
vn -0.6115 0.7859 0.0917
vn 0.5313 0.8187 -0.2178
vn -0.5283 0.8294 -0.1816
vn 0.3980 0.6854 -0.6097
vn 0.6367 0.7512 0.1742
vn -0.2540 0.8421 0.4758
vn -0.1822 0.6034 -0.7763
vn -0.5237 0.7807 0.3409
vn -0.2673 0.4521 -0.8510
vn -0.0105 0.8922 0.4514
vn 0.2702 0.9611 0.0575
vn -0.2409 0.9487 -0.2048
vn 0.1358 0.9682 0.2100
vn -0.1013 0.9456 -0.3093
vn -0.0387 0.9607 0.2749
vn 0.0557 0.9946 -0.0877
vn -0.0301 0.9961 0.0832
vn -0.1341 0.9712 0.1968
vn 0.2712 0.9625 -0.0024
vn 0.0306 0.9995 0.0020
vn 0.0075 0.9999 -0.0118
vn 0.0407 0.9987 0.0312
vn -0.0098 0.9857 -0.1682
vn -0.0221 0.9970 -0.0744
vn -0.1349 0.9841 0.1160
vn -0.3289 0.8989 0.2896
vn 0.6263 0.7175 -0.3050
vn -0.2804 0.9594 0.0311
vt 0.443478 0.467723
vt 0.459785 0.468926
vt 0.470715 0.437532
vt 0.460970 0.440666
vt 0.547560 0.472482
vt 0.559898 0.470902
vt 0.544328 0.441026
vt 0.536661 0.440691
vt 0.466370 0.473577
vt 0.464468 0.471371
vt 0.474702 0.440671
vt 0.477336 0.443430
vt 0.440633 0.468499
vt 0.458660 0.440566
vt 0.548928 0.474111
vt 0.538202 0.440918
vt 0.472914 0.469459
vt 0.481781 0.440759
vt 0.454041 0.471613
vt 0.466924 0.440299
vt 0.539492 0.471624
vt 0.529922 0.440541
vt 0.499430 0.472266
vt 0.500210 0.439812
vt 0.523002 0.471990
vt 0.517715 0.442205
vt 0.525120 0.474364
vt 0.519287 0.439538
vt 0.498574 0.472667
vt 0.499782 0.441354
vt 0.556017 0.473932
vt 0.542956 0.439049
vt 0.477529 0.472498
vt 0.483816 0.439785
vt 0.569382 0.472581
vt 0.550142 0.443866
vt 0.445217 0.498826
vt 0.468827 0.499159
vt 0.450984 0.498769
vt 0.436955 0.499101
vt 0.590581 0.499227
vt 0.572957 0.499466
vt 0.497028 0.499003
vt 0.532287 0.498930
vt 0.529453 0.499019
vt 0.498542 0.498922
vt 0.551606 0.499185
vt 0.463251 0.498967
vt 0.566149 0.499486
vt 0.423223 0.498658
vt 0.451764 0.499354
vt 0.563239 0.499483
vt 0.426081 0.498816
vt 0.578566 0.498779
vt 0.526553 0.414028
vt 0.520614 0.416387
vt 0.488160 0.412206
vt 0.501083 0.412033
vt 0.512866 0.416643
vt 0.514048 0.413887
vt 0.500945 0.414525
vt 0.530106 0.412791
vt 0.490646 0.414535
vt 0.536312 0.413957
vt 0.479712 0.414263
vt 0.482784 0.412616
vt 0.480930 0.411052
vt 0.530539 0.413896
vt 0.473373 0.412137
vt 0.526289 0.413190
vt 0.484152 0.413594
vt 0.476086 0.415263
vt 0.523903 0.390535
vt 0.524315 0.390778
vt 0.485004 0.390049
vt 0.489796 0.389860
vt 0.476335 0.390868
vt 0.480198 0.389150
vt 0.519422 0.390995
vt 0.501441 0.389502
vt 0.512189 0.390605
vt 0.513025 0.393256
vt 0.501125 0.392251
vt 0.527494 0.390327
vt 0.491663 0.391595
vt 0.532203 0.391769
vt 0.486396 0.391899
vt 0.484285 0.390549
vt 0.527769 0.391394
vt 0.476925 0.390253
vt 0.504844 0.369422
vt 0.503121 0.370067
vt 0.501074 0.371936
vt 0.501680 0.370088
vt 0.501834 0.370468
vt 0.501534 0.370526
vt 0.505032 0.368796
vt 0.502648 0.370879
vt 0.501039 0.370106
vt 0.504473 0.371597
vt 0.503078 0.370865
vt 0.505271 0.372573
vt 0.503304 0.370893
vt 0.503337 0.370109
vt 0.505187 0.369952
vt 0.502013 0.368480
vt 0.506095 0.368628
vt 0.502923 0.371105
vt 0.000000 0.000000
vt 0.503284 0.367033
vt 0.488464 0.439245
vt 0.138160 0.403570
vt 0.494445 0.534693
vt 0.496376 0.562183
vt 0.590245 0.487208
vt 0.592551 0.487217
vt 0.586921 0.528325
vt 0.584903 0.530293
vt 0.506375 0.443683
vt 0.514386 0.440494
vt 0.518925 0.555524
vt 0.511053 0.557698
vt 0.496047 0.441598
vt 0.503248 0.541192
vt 0.581030 0.486407
vt 0.576254 0.529155
vt 0.538997 0.440118
vt 0.539471 0.544949
vt 0.576003 0.442291
vt 0.560554 0.440921
vt 0.558393 0.549320
vt 0.571799 0.573167
vt 0.562530 0.440190
vt 0.560186 0.510007
vt 0.537941 0.440786
vt 0.538805 0.538948
vt 0.590893 0.444607
vt 0.585522 0.564558
vt 0.518274 0.442071
vt 0.521768 0.549984
vt 0.597944 0.487163
vt 0.611906 0.486519
vt 0.603662 0.524082
vt 0.591843 0.526343
vt 0.505831 0.438858
vt 0.511768 0.535496
vt 0.501809 0.439333
vt 0.508724 0.546278
vt 0.602388 0.485314
vt 0.593701 0.517188
vt 0.545453 0.535669
vt 0.581189 0.570627
vt 0.579413 0.576651
vt 0.587158 0.536529
vt 0.595926 0.557637
s 0
usemtl Base
f 21/1/1 22/2/1 41/3/1 40/4/1
f 28/5/2 29/6/2 48/7/2 47/8/2
f 35/9/3 36/10/3 55/11/3 54/12/3
f 20/13/4 21/1/4 40/4/4 39/14/4
f 27/15/5 28/5/5 47/8/5 46/16/5
f 34/17/6 35/9/6 54/12/6 53/18/6
f 19/19/7 20/13/7 39/14/7 38/20/7
f 26/21/8 27/15/8 46/16/8 45/22/8
f 33/23/9 34/17/9 53/18/9 52/24/9
f 25/25/10 26/21/10 45/22/10 44/26/10
f 32/27/11 33/23/11 52/24/11 51/28/11
f 24/29/12 25/25/12 44/26/12 43/30/12
f 31/31/13 32/27/13 51/28/13 50/32/13
f 23/33/14 24/29/14 43/30/14 42/34/14
f 30/35/15 31/31/15 50/32/15 49/36/15
f 36/10/16 19/19/16 38/20/16 55/11/16
f 22/2/17 23/33/17 42/34/17 41/3/17
f 29/6/18 30/35/18 49/36/18 48/7/18
f 4/37/19 5/38/19 23/33/19 22/2/19
f 18/39/20 1/40/20 19/19/20 36/10/20
f 12/41/21 13/42/21 31/31/21 30/35/21
f 5/38/22 6/43/22 24/29/22 23/33/22
f 13/42/23 14/44/23 32/27/23 31/31/23
f 6/43/24 7/45/24 25/25/24 24/29/24
f 14/44/25 15/46/25 33/23/25 32/27/25
f 7/45/26 8/47/26 26/21/26 25/25/26
f 15/46/27 16/48/27 34/17/27 33/23/27
f 8/47/28 9/49/28 27/15/28 26/21/28
f 1/40/29 2/50/29 20/13/29 19/19/29
f 16/48/30 17/51/30 35/9/30 34/17/30
f 9/49/31 10/52/31 28/5/31 27/15/31
f 2/50/32 3/53/32 21/1/32 20/13/32
f 17/51/33 18/39/33 36/10/33 35/9/33
f 10/52/34 11/54/34 29/6/34 28/5/34
f 3/53/35 4/37/35 22/2/35 21/1/35
f 11/54/36 12/41/36 30/35/36 29/6/36
f 45/22/37 46/16/37 64/55/37 63/56/37
f 52/24/38 53/18/38 71/57/38 70/58/38
f 44/26/39 45/22/39 63/56/39 62/59/39
f 51/28/40 52/24/40 70/58/40 69/60/40
f 43/30/41 44/26/41 62/59/41 61/61/41
f 50/32/42 51/28/42 69/60/42 68/62/42
f 42/34/43 43/30/43 61/61/43 60/63/43
f 49/36/44 50/32/44 68/62/44 67/64/44
f 55/11/45 38/20/45 37/65/45 73/66/45
f 41/3/46 42/34/46 60/63/46 59/67/46
f 48/7/47 49/36/47 67/64/47 66/68/47
f 40/4/48 41/3/48 59/67/48 58/69/48
f 47/8/49 48/7/49 66/68/49 65/70/49
f 54/12/50 55/11/50 73/66/50 72/71/50
f 39/14/51 40/4/51 58/69/51 57/72/51
f 46/16/52 47/8/52 65/70/52 64/55/52
f 53/18/53 54/12/53 72/71/53 71/57/53
f 38/20/54 39/14/54 57/72/54 37/65/54
f 64/55/55 65/70/55 83/73/55 82/74/55
f 71/57/56 72/71/56 90/75/56 89/76/56
f 37/65/57 57/72/57 75/77/57 56/78/57
f 63/56/58 64/55/58 82/74/58 81/79/58
f 70/58/59 71/57/59 89/76/59 88/80/59
f 62/59/60 63/56/60 81/79/60 80/81/60
f 69/60/61 70/58/61 88/80/61 87/82/61
f 61/61/62 62/59/62 80/81/62 79/83/62
f 68/62/63 69/60/63 87/82/63 86/84/63
f 60/63/64 61/61/64 79/83/64 78/85/64
f 67/64/65 68/62/65 86/84/65 85/86/65
f 73/66/66 37/65/66 56/78/66 91/87/66
f 59/67/67 60/63/67 78/85/67 77/88/67
f 66/68/68 67/64/68 85/86/68 84/89/68
f 58/69/69 59/67/69 77/88/69 76/90/69
f 65/70/70 66/68/70 84/89/70 83/73/70
f 72/71/71 73/66/71 91/87/71 90/75/71
f 57/72/72 58/69/72 76/90/72 75/77/72
f 83/73/73 84/89/73 101/91/73 100/92/73
f 90/75/74 91/87/74 108/93/74 107/94/74
f 75/77/75 76/90/75 93/95/75 92/96/75
f 82/74/76 83/73/76 100/92/76 99/97/76
f 89/76/77 90/75/77 107/94/77 106/98/77
f 56/78/78 75/77/78 92/96/78 74/99/78
f 81/79/79 82/74/79 99/97/79 98/100/79
f 88/80/80 89/76/80 106/98/80 105/101/80
f 80/81/81 81/79/81 98/100/81 97/102/81
f 87/82/82 88/80/82 105/101/82 104/103/82
f 79/83/83 80/81/83 97/102/83 96/104/83
f 86/84/84 87/82/84 104/103/84 103/105/84
f 78/85/85 79/83/85 96/104/85 95/106/85
f 85/86/86 86/84/86 103/105/86 102/107/86
f 91/87/87 56/78/87 74/99/87 108/93/87
f 77/88/88 78/85/88 95/106/88 94/108/88
f 84/89/89 85/86/89 102/107/89 101/91/89
f 76/90/90 77/88/90 94/108/90 93/95/90
f 92/109/91 93/109/91 109/109/91
f 93/95/92 94/108/92 109/110/92
f 94/108/93 95/106/93 109/110/93
f 95/106/94 96/104/94 109/110/94
f 96/104/95 97/102/95 109/110/95
f 97/109/96 98/109/96 109/109/96
f 98/100/97 99/97/97 109/110/97
f 99/97/98 100/92/98 109/110/98
f 100/92/99 101/91/99 109/110/99
f 101/91/100 102/107/100 109/110/100
f 102/107/101 103/105/101 109/110/101
f 103/109/102 104/109/102 109/109/102
f 104/103/103 105/101/103 109/110/103
f 105/109/104 106/109/104 109/109/104
f 106/98/105 107/94/105 109/110/105
f 107/94/106 108/93/106 109/110/106
f 108/93/107 74/99/107 109/110/107
f 74/109/108 92/109/108 109/109/108
usemtl Grass
f 112/111/109 111/112/109 129/113/109 130/114/109
f 119/115/110 118/116/110 136/117/110 137/118/110
f 126/119/111 125/120/111 143/121/111 144/122/111
f 111/112/112 110/123/112 128/124/112 129/113/112
f 118/116/113 117/125/113 135/126/113 136/117/113
f 125/120/114 124/127/114 142/128/114 143/121/114
f 117/129/115 116/130/115 134/131/115 135/132/115
f 124/127/116 123/133/116 141/134/116 142/128/116
f 116/130/117 115/135/117 133/136/117 134/131/117
f 123/133/118 122/137/118 140/138/118 141/134/118
f 115/135/119 114/139/119 132/140/119 133/136/119
f 122/141/120 121/142/120 139/143/120 140/144/120
f 110/123/121 127/145/121 145/146/121 128/124/121
f 114/139/122 113/147/122 131/148/122 132/140/122
f 121/142/123 120/149/123 138/150/123 139/143/123
f 113/147/124 112/111/124 130/114/124 131/148/124
f 120/149/125 119/115/125 137/118/125 138/150/125
f 127/145/126 126/119/126 144/122/126 145/146/126
f 129/113/127 146/151/127 130/114/127
f 130/114/128 146/151/128 131/148/128
f 131/148/129 146/151/129 132/140/129
f 132/140/130 146/151/130 133/136/130
f 133/136/131 146/151/131 134/131/131
f 134/131/132 146/151/132 135/132/132
f 135/132/133 146/151/133 136/152/133
f 136/152/134 146/151/134 137/153/134
f 137/153/135 146/151/135 138/154/135
f 138/154/136 146/151/136 139/155/136
f 139/155/137 146/151/137 140/138/137
f 140/138/138 146/151/138 141/134/138
f 141/134/139 146/151/139 142/128/139
f 142/128/140 146/151/140 143/121/140
f 143/121/141 146/151/141 144/122/141
f 144/122/142 146/151/142 145/146/142
f 145/146/143 146/151/143 128/124/143
f 128/124/144 146/151/144 129/113/144
